/* XPM */
static char *result[] = {
/* columns rows colors chars-per-pixel */
"16 16 56 1 ",
"  c black",
". c #010101",
"X c gray1",
"o c #040404",
"O c gray2",
"+ c #070707",
"@ c gray3",
"# c #090909",
"$ c #0B0B0B",
"% c gray5",
"& c #10100F",
"* c #101010",
"= c gray7",
"- c #151515",
"; c #161616",
": c #181818",
"> c gray10",
", c #1E1E1E",
"< c #202020",
"1 c gray13",
"2 c #222222",
"3 c gray14",
"4 c #252525",
"5 c gray15",
"6 c #272727",
"7 c #282828",
"8 c gray16",
"9 c #2A2A2A",
"0 c gray17",
"q c #2C2C2C",
"w c gray18",
"e c #2F2F2F",
"r c gray19",
"t c #313131",
"y c #323232",
"u c gray20",
"i c #343434",
"p c #353535",
"a c gray21",
"s c #373737",
"d c gray22",
"f c #393939",
"g c gray23",
"h c #3C3C3C",
"j c gray24",
"k c #3E3E3E",
"l c gray25",
"z c #414141",
"x c gray26",
"c c #464646",
"v c #4C4C4C",
"b c gray31",
"n c #505050",
"m c #515151",
"M c #555555",
"N c None",
/* pixels */
"NNNNNNNyyNNNNNNN",
"NNNNp+o56=.uNNNN",
"NNN<:jNNNNN3eNNN",
"NN31NNNNNNNzu$NN",
"Ng$NNNNNr> X 4NN",
"NavNu4 %qsNN n-N",
"Ne$.9iNNNNNu9N N",
"NNNNNNNMr-N NN,N",
"N.aNNg3 NxqtNN&N",
"N+0 NNN NNONNN N",
"Ntr#wNN N6pNNd8N",
"NNX<q-N e*NNN@NN",
"NNl.kNN  fNN;fNN",
"NNNx$2N :mqohNNN",
"NNNNNib.c7yNNNNN",
"NNNNNNNgNNNNNNNN"
};
