/* XPM */
static char *result[] = {
/* columns rows colors chars-per-pixel */
"64 64 131 2 ",
"   c black",
".  c #000001",
"X  c #010101",
"o  c #010201",
"O  c #020202",
"+  c gray1",
"@  c #040404",
"#  c gray2",
"$  c #070707",
"%  c gray3",
"&  c #090909",
"*  c gray4",
"=  c #0B0B0B",
"-  c #0C0C0C",
";  c gray5",
":  c #0E0E0E",
">  c gray6",
",  c #101010",
"<  c #111111",
"1  c gray7",
"2  c #131313",
"3  c #151515",
"4  c #161616",
"5  c gray9",
"6  c #181818",
"7  c #191919",
"8  c gray10",
"9  c #1B1B1B",
"0  c gray11",
"q  c #1D1D1D",
"w  c #202020",
"e  c #222222",
"r  c #232323",
"t  c #242423",
"y  c gray14",
"u  c gray15",
"i  c #272727",
"p  c #282828",
"a  c gray16",
"s  c gray17",
"d  c #2C2C2C",
"f  c #2D2D2D",
"g  c gray18",
"h  c #2F2F2F",
"j  c gray19",
"k  c #313131",
"l  c #323232",
"z  c gray20",
"x  c #343434",
"c  c gray21",
"v  c #373737",
"b  c gray22",
"n  c #393939",
"m  c #3A3A3A",
"M  c gray23",
"N  c #3C3C3C",
"B  c gray24",
"V  c #3E3E3E",
"C  c #3F3F3F",
"Z  c gray25",
"A  c #414141",
"S  c #414242",
"D  c gray26",
"F  c #434343",
"G  c #444444",
"H  c gray27",
"J  c #464646",
"K  c gray28",
"L  c #484847",
"P  c #484848",
"I  c #494949",
"U  c gray29",
"Y  c #4B4B4B",
"T  c #4C4D4B",
"R  c #4C4C4C",
"E  c #4D4D4C",
"W  c gray30",
"Q  c #4E4E4E",
"!  c gray31",
"~  c #505050",
"^  c #515151",
"/  c gray32",
"(  c #535353",
")  c gray33",
"_  c #555555",
"`  c #565656",
"'  c gray34",
"]  c #585858",
"[  c gray35",
"{  c #5A5A5A",
"}  c #5B5B5B",
"|  c gray36",
" . c #5D5D5D",
".. c gray37",
"X. c #5F5F5F",
"o. c #606060",
"O. c gray38",
"+. c #626360",
"@. c #626262",
"#. c gray39",
"$. c #646464",
"%. c #656565",
"&. c gray40",
"*. c #676767",
"=. c #686868",
"-. c DimGray",
";. c #696A69",
":. c #6A6A6A",
">. c gray42",
",. c #6C6C6C",
"<. c #6D6D6D",
"1. c gray43",
"2. c #6F6F6F",
"3. c gray44",
"4. c #717171",
"5. c #727272",
"6. c gray45",
"7. c gray46",
"8. c #767676",
"9. c #777777",
"0. c gray47",
"q. c #797979",
"w. c gray48",
"e. c #7C7C7C",
"r. c gray49",
"t. c #7E7E7E",
"y. c gray50",
"u. c #828480",
"i. c gray54",
"p. c #989898",
"a. c None",
/* pixels */
"a.a.a.a.a.a.a.a.a.a.a.a.a.a.a.a.a.a.a.a.a.a.a.a.a.a.a.a.a.a.a.a.a.a.a.a.a.a.a.a.a.a.a.a.a.a.a.a.a.a.a.a.a.a.a.a.a.a.a.a.a.a.a.a.",
"a.a.a.a.a.a.a.a.a.a.a.a.a.a.a.a.a.a.a.a.a.a.a.a.a.a.a.a.a.a.a.a.a.a.a.a.a.a.a.a.a.a.a.a.a.a.a.a.a.a.a.a.a.a.a.a.a.a.a.a.a.a.a.a.",
"a.a.a.a.a.a.a.a.a.a.a.a.a.a.a.a.a.a.a.a.a.a.a.a.5.{ Q 8                 % A _ =.a.a.a.a.a.a.a.a.a.a.a.a.a.a.a.a.a.a.a.a.a.a.a.a.",
"a.a.a.a.a.a.a.a.a.a.a.a.a.a.a.a.a.a.a.a.a.6.( 1                                 + F *.a.a.a.a.a.a.a.a.a.a.a.a.a.a.a.a.a.a.a.a.a.",
"a.a.a.a.a.a.a.a.a.a.a.a.a.a.a.a.a.a.a.:.x                                             2 | a.a.a.a.a.a.a.a.a.a.a.a.a.a.a.a.a.a.a.",
"a.a.a.a.a.a.a.a.a.a.a.a.a.a.a.a.a.3.j                                                     ; ..a.a.a.a.a.a.a.a.a.a.a.a.a.a.a.a.a.",
"a.a.a.a.a.a.a.a.a.a.a.a.a.a.a.a.P                                                             f 8.a.a.a.a.a.a.a.a.a.a.a.a.a.a.a.",
"a.a.a.a.a.a.a.a.a.a.a.a.a.a.5.9                       i ~ ] } O.%.@.} ] / i                     X _ a.a.a.a.a.a.a.a.a.a.a.a.a.a.",
"a.a.a.a.a.a.a.a.a.a.a.a.a.X.X                 O J &.a.a.a.a.a.a.a.a.a.a.a.a.a.=.J O                 V a.a.a.a.a.a.a.a.a.a.a.a.a.",
"a.a.a.a.a.a.a.a.a.a.a.a.W                 1 } a.a.a.a.a.a.a.a.a.a.a.a.a.a.a.a.a.a.a.} >               h a.a.a.a.a.a.a.a.a.a.a.a.",
"a.a.a.a.a.a.a.a.a.a.a.I               O ` a.a.a.a.a.a.a.a.a.a.a.a.a.a.a.a.a.a.a.a.a.a.a.` O             k a.a.a.a.a.a.a.a.a.a.a.",
"a.a.a.a.a.a.a.a.a.a.!               l r.a.a.a.a.a.a.a.a.a.a.a.a.a.a.a.a.a.a.a.a.a.a.a.a.a.y.l X * U o.a.a.a.:.=.a.a.a.a.a.a.a.a.",
"a.a.a.a.a.a.a.a.a.O.              Y a.a.a.a.a.a.a.a.a.a.a.a.a.a.a.a.a.a.a.a.a.a.a.a.a.a.a.a.a.a.a.a.a.o.A +     f a.a.a.a.a.a.a.",
"a.a.a.a.a.a.a.a.0.X              .a.a.a.a.a.a.a.a.a.a.a.a.a.a.a.a.a.a.a.a.a.a.a.a.a.a.a.a.a.a.%.Q 3               <.a.a.a.a.a.a.",
"a.a.a.a.a.a.a.a.r             ..a.a.a.a.a.a.a.a.a.a.a.a.a.a.a.a.a.a.a.a.a.a.a.a.a.a.a.-.' f X                     3.a.a.a.a.a.a.",
"a.a.a.a.a.a.a.!             ] a.a.a.a.a.a.a.a.a.a.a.a.a.a.a.a.a.a.a.a.a.a.a.a.a...Z +                           b a.a.a.a.a.a.a.",
"a.a.a.a.a.a.q.X           F a.a.a.a.a.a.a.a.a.a.a.a.a.a.a.a.a.a.a.a.a.a.@./ 1                                   6.a.a.a.a.a.a.a.",
"a.a.a.a.a.a.M           e a.a.a.a.a.a.a.a.a.a.a.a.a.a.a.a.a.a.a.3.` f                                         Z a.O.a.a.a.a.a.a.",
"a.a.a.a.a.4.          X 4.a.a.a.a.a.a.a.a.a.a.a.a.a.a.a.a.} C O                                             X e.a.2 ( a.a.a.a.a.",
"a.a.a.a.a.F           D a.a.a.a.a.a.a.a.a.a.a.a.a.%.! 2                                   + q X             R a.o.  # a.a.a.a.a.",
"a.a.a.a.a.X         X w.a.a.a.a.a.a.a.a.a.>.' s X                                 X l { >.a.a.{           + a.a.<     X.a.a.a.a.",
"a.a.a.a.X.          F a.a.a.a.a.a.a. .Z +                                   u _ -.a.a.a.a.a.a.*.          ` a...      j a.a.a.a.",
"a.a.a.a.x   X * R @.a.a.a.a.O.Q <                                 X 2 ~ $.a.a.a.a.a.a.a.a.a.a.g         : a.a.1       X a.a.a.a.",
"a.a.a.a.N [ 7.a.a.a.-._ d                                   $ K ..a.a.a.a.a.a.a.a.a.a.a.a.a.=.          ..a.a.,         #.a.a.a.",
"a.a.a.a.a.a.a.} Z O                                 O B  .2.a.a.a.a.a.a.a.a.a.a.a.a.a.a.a.a.e         w a.a.a.(         W a.a.a.",
"a.a.a.@.! 1                                 X j ` <.a.a.a.a.a.a.a.a.a.a.a.a.a.a.a.a.a.a.a.@.          &.a.a.a.%.        7 a.a.a.",
"a.M X                                 e / :.a.a.a.a.a.a.a.a.a.a.a.a.>.W - R :.a.a.a.a.a.a.>         d a.a.a.a.a.        X a.a.a.",
"a.a.3.! #                     , Q O.a.a.a.a.a.a.a.a.a.a.a.a.a.*.Q %           : a.a.a.a.]           ,.a.a.a.a.a.O         a.a.a.",
"a.a.a.a.a.&.m         # J X.a.a.a.a.a.a.a.a.a.a.a.a.a.a.a.-.&                 X a.a.a.a.+         b a.a.a.a.a.a.9         -.a.a.",
"a.a.a.a.a.a.a.a.| | 1.a.a.a.a.a.a.a.a.a.a.a.a.a.a.a.a.a.a.a.-.^ $             X a.a.a.Q           6.a.a.a.a.a.a.S          .a.a.",
"a.a.a.a.a.a.a.a.a.a.a.a.a.a.a.a.a.a.a.a.a.a. .Z 1 i ( $.a.a.a.a.a.:.R X       w a.a.a.X         A a.a.a.a.a.a.a.T         o.a.a.",
"a.a.a.a.a.4.{ B ~ a.a.a.a.a.a.a.a.a.a.} s                 m | a.a.a.a.O       -.a.a.G         X w.a.a.a.a.a.a.a.E         O.a.a.",
"a.a.a.R =       K a.a.a.a.a.a.a.a.i._ 9                       X a.a.a.6     c a.a.6.          Q a.a.a.a.a.a.a.a.L         ..a.a.",
"a.a.a.+         i a.a.a.a.a.a.a.a.a.a.a.4.' 9                 X a.a.a.m   X 6.a.a.n         + a.a.a.a.a.a.a.a.a.t         &.a.a.",
"a.a.a.9           O   O U ,.a.a.a.a.a.a.a.a.a.6.] r .         X a.a.a.Q   H a.a.,.          _ a.a.a.a.a.a.a.a.a.#         a.a.a.",
"a.a.a.P                     y  .a.a.a.a.a.a.a.a.a.a./           a.a.a.) O a.a.a.j         : a.a.a.a.a.a.a.a.a.a.        X a.a.a.",
"a.a.a.'                         C a.a.a.a.a.a.a.a.a.+..         >.a.a.' _ a.a.*.          X.a.a.a.a.a.a.a.a.a.=.        5 a.a.a.",
"a.a.a.=.                        & a.a.a.a.a.a.a.a.a.;.          #.a.a.a.a.a.a.w         q a.a.a.a.a.a.a.a.a.a.[         R a.a.a.",
"a.a.a.a.            ^ &.          a.a.a.a.a.a.a.a.a.<.          | a.a.a.a.a.@.        X *.a.a.a.a.a.a.a.a.a.a.p         #.a.a.a.",
"a.a.a.a.z           8.a.X         a.a.a.a.a.a.a.a.a.a.          ] a.a.a.a.a.1         d a.a.a.a.a.a.a.a.a.a.9.          a.a.a.a.",
"a.a.a.a...          / a.O         :.a.a.a.a.a.a.a.a.a.          ) a.a.a.a.[           -.a.a.a.a.a.a.a.a.a.a.~         j a.a.a.a.",
"a.a.a.a.a.X         @ p.1         _ a.a.a.a.a.a.a.a.a.X         / a.a.a.a.@         v a.a.a.a.a.a.a.a.a.a.a.+         ..a.a.a.a.",
"a.a.a.a.a.A            .c           + A { 2.a.a.a.a.a.X         ! a.a.a.!           6.a.a.a.a.a.a.a.a.a.a._         + a.a.a.a.a.",
"a.a.a.a.a.6.          O $                   O Z a.a.a.+         I a.a.y.X         G a.a.a.a.a.a.a.a.a.a.u.o         ( a.a.a.a.a.",
"a.a.a.a.a.a.m                                   ' a.a.:         x a.a.G         X e.a.a.a.a.a.a.a.a.a.a.n         + a.a.a.a.a.a.",
"a.a.a.a.a.a.9.X                                 { a.a.a         + :.{           W a.a.a.a.a.a.a.a.a.a.[           ` a.a.a.a.a.a.",
"a.a.a.a.a.a.a.W             h ^ y X             ] a.a.H                       + a.a.a.a.a.a.a.a.a.a.2.X         w a.a.a.a.a.a.a.",
"a.a.a.a.a.a.a.a.e           & e.a.a.a.o._ c +   ( a.a.!                       ' a.a.a.a.a.a.a.a.a.q.#           4.a.a.a.a.a.a.a.",
"a.a.a.a.a.a.a.a.8.X           = 9.a.a.a.a.a.a.a.t.a.a./                     = a.a.a.a.a.a.a.a.a.0.;           ~ a.a.a.a.a.a.a.a.",
"a.a.a.a.a.a.a.a.a.}             + =.a.a.a.a.a.a.a.a.a.`                     o.a.a.a.a.a.a.a.a.-.+           n a.a.a.a.a.a.a.a.a.",
"a.a.a.a.a.a.a.a.a.a./               ^ a.a.a.a.a.a.a.a.'                   w a.a.a.a.a.a.a.a.Q             s a.a.a.a.a.a.a.a.a.a.",
"a.a.a.a.a.a.a.a.a.a.a.Y               a 1.a.a.a.a.a.a.|                   *.a.a.a.a.a.a.3.p             r a.a.a.a.a.a.a.a.a.a.a.",
"a.a.a.a.a.a.a.a.a.a.a.a.Q               X C 4.a.a.a.a.O.                f a.a.a.a.a.5.C X             s a.a.a.a.a.a.a.a.a.a.a.a.",
"a.a.a.a.a.a.a.a.a.a.a.a.a.{                   l O.a.a.:.                >.a.a.a.@.l                 M a.a.a.a.a.a.a.a.a.a.a.a.a.",
"a.a.a.a.a.a.a.a.a.a.a.a.a.a.3.4                   O a.2.X             b a.r.h X                   ( a.a.a.a.a.a.a.a.a.a.a.a.a.a.",
"a.a.a.a.a.a.a.a.a.a.a.a.a.a.a.a.G                   a.a.              6.a.M                   i 4.a.a.a.a.a.a.a.a.a.a.a.a.a.a.a.",
"a.a.a.a.a.a.a.a.a.a.a.a.a.a.a.a.a.3.f               a.a.            A a.-.                &  .a.a.a.a.a.a.a.a.a.a.a.a.a.a.a.a.a.",
"a.a.a.a.a.a.a.a.a.a.a.a.a.a.a.a.a.a.a.=.z           1.a.X         X e.a.w             > { a.a.a.a.a.a.a.a.a.a.a.a.a.a.a.a.a.a.a.",
"a.a.a.a.a.a.a.a.a.a.a.a.a.a.a.a.a.a.a.a.a.3.) ,     @.a.O         U a.'         O Z $.a.a.a.a.a.a.a.a.a.a.a.a.a.a.a.a.a.a.a.a.a.",
"a.a.a.a.a.a.a.a.a.a.a.a.a.a.a.a.a.a.a.a.a.a.a.a.5.[ 9.a.*       O a.a.+ # C ) *.a.a.a.a.a.a.a.a.a.a.a.a.a.a.a.a.a.a.a.a.a.a.a.a.",
"a.a.a.a.a.a.a.a.a.a.a.a.a.a.a.a.a.a.a.a.a.a.a.a.a.a.a.a.0       ` a.a.a.a.a.a.a.a.a.a.a.a.a.a.a.a.a.a.a.a.a.a.a.a.a.a.a.a.a.a.a.",
"a.a.a.a.a.a.a.a.a.a.a.a.a.a.a.a.a.a.a.a.a.a.a.a.a.a.a.a.)     > a.a.a.a.a.a.a.a.a.a.a.a.a.a.a.a.a.a.a.a.a.a.a.a.a.a.a.a.a.a.a.a.",
"a.a.a.a.a.a.a.a.a.a.a.a.a.a.a.a.a.a.a.a.a.a.a.a.a.a.a.a.a.{ R a.a.a.a.a.a.a.a.a.a.a.a.a.a.a.a.a.a.a.a.a.a.a.a.a.a.a.a.a.a.a.a.a.",
"a.a.a.a.a.a.a.a.a.a.a.a.a.a.a.a.a.a.a.a.a.a.a.a.a.a.a.a.a.a.a.a.a.a.a.a.a.a.a.a.a.a.a.a.a.a.a.a.a.a.a.a.a.a.a.a.a.a.a.a.a.a.a.a."
};
