/* XPM */
static char *result[] = {
/* columns rows colors chars-per-pixel */
"32 32 78 1 ",
"  c black",
". c #010101",
"X c #020202",
"o c gray1",
"O c #040404",
"+ c gray2",
"@ c #090909",
"# c gray4",
"$ c gray5",
"% c #101010",
"& c #131313",
"* c gray8",
"= c #151515",
"- c #161616",
"; c gray9",
": c #191919",
"> c #1D1D1D",
", c #1E1E1E",
"< c gray12",
"1 c gray13",
"2 c #222222",
"3 c gray14",
"4 c #252525",
"5 c #272726",
"6 c #282828",
"7 c #2A2A2A",
"8 c gray17",
"9 c #2C2C2C",
"0 c gray18",
"q c gray19",
"w c #313131",
"e c #343434",
"r c #353535",
"t c #353635",
"y c #373737",
"u c gray22",
"i c #393939",
"p c #3A3A3A",
"a c gray23",
"s c #3C3C3C",
"d c gray24",
"f c #3E3E3E",
"g c #3F3F3F",
"h c gray25",
"j c #404140",
"k c #414141",
"l c gray26",
"z c #434343",
"x c #444444",
"c c gray27",
"v c #464646",
"b c gray28",
"n c #484848",
"m c #494949",
"M c gray29",
"N c #4B4B4B",
"B c #4C4C4C",
"V c gray30",
"C c #4E4E4E",
"Z c gray31",
"A c #505050",
"S c #515151",
"D c gray32",
"F c #535353",
"G c gray33",
"H c #555555",
"J c #565656",
"K c #565756",
"L c #585858",
"P c gray35",
"I c #5A5A5A",
"U c gray36",
"Y c #5D5D5D",
"T c #5F5F5F",
"R c #646464",
"E c DimGray",
"W c #6C6C6C",
"Q c None",
/* pixels */
"QQQQQQQQQQQQQQQQQQQQQQQQQQQQQQQQ",
"QQQQQQQQQQQDg6    <sCQQQQQQQQQQQ",
"QQQQQQQQQN;          +cQQQQQQQQQ",
"QQQQQQQT1    %ipdp9    &GQQQQQQQ",
"QQQQQQC   +zQQQQQQQQZ8   kQQQQQQ",
"QQQQQm   uQQQQQQQQQQQQJ-3kQQQQQQ",
"QQQQL   CQQQQQQQQQQQQQQQTk, NQQQ",
"QQQQ$  SQQQQQQQQQQQQQz0     VQQQ",
"QQQp  hQQQQQQQQQQMa+       >QQQQ",
"QQQ  ,QQQQQQQSg>      .#   GnFQQ",
"QQx  AQQQQc0       9xQQQ  6Q+wQQ",
"QQibWQMi+      2lZQQQQQM  JZ  QQ",
"QQLh,      =fNQQQQQQQQQ$ qQQ  ZQ",
"Qd.    OpmQQQQQQAs3vQQc  QQQ. cQ",
"QQQBfvQQQQQQQQQdX  .QQ. yQQQ2 sQ",
"QQQQQQQQQQnr&dNQQa wQd  QQQQt dQ",
"QJo LQQQQDg@   .Qn QQ  kQQQQ5 sQ",
"QA  ..pQQQQQG4  QQfQe OQQQQQ. xQ",
"QQ      VQQQQj  QQQU  bQQQQQ  ZQ",
"QQ-  E  cQQQQz  QQQ0 &QQQQQN  QQ",
"QQx  R+ sQQQQx  QQJ  NQQQQQ4 wQQ",
"QQQ  9:  ,gCQb  QQ4 <QQQQQK  FQQ",
"QQQi        QN  Bn  SQQQQQ: 6QQQ",
"QQQQ$  nCfq.QD     6QQQQQw  QQQQ",
"QQQQH  oPQQQQQ     JQQQQe  bQQQQ",
"QQQQQN   zQQQQ    wQQQQ3  aQQQQQ",
"QQQQQQZ   >NQQ    QQQi   fQQQQQQ",
"QQQQQQQY<   .Q   uQ*   %DQQQQQQQ",
"QQQQQQQQQM-  Q   Qw  OxQQQQQQQQQ",
"QQQQQQQQQQQDgQo gI,sVQQQQQQQQQQQ",
"QQQQQQQQQQQQQQ7OQQQQQQQQQQQQQQQQ",
"QQQQQQQQQQQQQQQQQQQQQQQQQQQQQQQQ"
};
